<svg width="20" height="20" viewBox="0 0 20 20" fill="none" xmlns="http://www.w3.org/2000/svg">
<g clip-path="url(#clip0_108_79)">
<mask id="mask0_108_79" style="mask-type:luminance" maskUnits="userSpaceOnUse" x="0" y="0" width="20" height="20">
<path d="M20 0H0V20H20V0Z" fill="white"/>
</mask>
<g mask="url(#mask0_108_79)">
<path d="M20 0H0V20H20V0Z" fill="white"/>
<path d="M1.67782 5.72612C1.12245 8.38484 3.21593 11.5498 5.84513 14.1789C8.47437 16.8082 11.6392 18.9017 14.298 18.3463C16.4845 17.8895 17.6008 16.7248 18.229 15.7323C18.4458 15.3898 18.3364 14.9453 18.0115 14.703L14.9349 12.4081C14.6031 12.1607 14.14 12.1942 13.8474 12.4868L12.2143 14.1198C12.2143 14.1198 10.627 13.6038 8.52354 11.5005C6.42022 9.39717 5.90424 7.8098 5.90424 7.8098L7.53728 6.17675C7.82994 5.8841 7.86347 5.421 7.616 5.08925L5.32108 2.01259C5.07875 1.68771 4.63423 1.5783 4.29177 1.79506C3.29929 2.42329 2.13457 3.53956 1.67782 5.72612Z" stroke="#0019FF" stroke-linecap="round" stroke-linejoin="round"/>
</g>
</g>
<defs>
<clipPath id="clip0_108_79">
<rect width="20" height="20" fill="white"/>
</clipPath>
</defs>
</svg>
