<svg width="267" height="63" viewBox="0 0 267 63" fill="none" xmlns="http://www.w3.org/2000/svg">
<path d="M48.8 46.6C46.6133 46.6 44.84 46 43.48 44.8C42.1467 43.5733 41.48 41.7867 41.48 39.44V28C41.48 27.2 41.88 26.8 42.68 26.8H43.92C44.3467 26.8 44.6533 26.9067 44.84 27.12C45.0267 27.3067 45.12 27.6 45.12 28V39.4C45.12 40.9467 45.52 42.08 46.32 42.8C47.1467 43.4933 48.36 43.84 49.96 43.84C51.6667 43.84 53.1067 43.3733 54.28 42.44C55.4533 41.5067 56.04 40.3067 56.04 38.84V28C56.04 27.2 56.4533 26.8 57.28 26.8H58.48C58.9067 26.8 59.2133 26.9067 59.4 27.12C59.5867 27.3067 59.68 27.6 59.68 28V45C59.68 45.3733 59.6133 45.64 59.48 45.8C59.3733 45.9333 59.1467 46 58.8 46H57.48C57.1867 46 56.9867 45.9333 56.88 45.8C56.7733 45.6667 56.7067 45.4533 56.68 45.16L56.56 43.24C55.6533 44.3333 54.5733 45.1733 53.32 45.76C52.0933 46.32 50.5867 46.6 48.8 46.6ZM66.2794 46C65.4527 46 65.0394 45.6 65.0394 44.8V27.8C65.0394 27.4267 65.0927 27.1733 65.1994 27.04C65.3327 26.88 65.586 26.8 65.9594 26.8H67.2794C67.5727 26.8 67.7727 26.8667 67.8794 27C68.0127 27.1333 68.0927 27.3467 68.1194 27.64L68.1594 29.24C68.8794 28.28 69.7727 27.5333 70.8394 27C71.9327 26.4667 73.186 26.2 74.5994 26.2C75.586 26.2 76.306 26.3467 76.7594 26.64C76.9994 26.8 77.0794 27 76.9994 27.24L76.5594 29C76.4794 29.32 76.2794 29.4133 75.9594 29.28C75.426 29.04 74.7594 28.92 73.9594 28.92C72.4394 28.92 71.1727 29.3467 70.1594 30.2C69.1727 31.0533 68.6794 32.24 68.6794 33.76V44.8C68.6794 45.2 68.586 45.5067 68.3994 45.72C68.2127 45.9067 67.906 46 67.4794 46H66.2794ZM90.9416 46.6C88.9416 46.6 87.1149 46.2533 85.4616 45.56C83.8082 44.8667 82.4749 43.7867 81.4616 42.32C80.4749 40.8267 79.9816 38.9733 79.9816 36.76C79.9816 33.2933 80.8749 30.6667 82.6616 28.88C84.4749 27.0933 87.0349 26.2 90.3416 26.2C93.6216 26.2 96.0882 27.0667 97.7416 28.8C99.3949 30.5067 100.222 33.0533 100.222 36.44C100.222 37.16 99.8749 37.52 99.1816 37.52H83.4616C83.4616 39.6267 84.1549 41.2267 85.5416 42.32C86.9282 43.4133 88.8482 43.96 91.3016 43.96C93.6216 43.96 95.6216 43.44 97.3016 42.4C97.4616 42.32 97.5816 42.28 97.6616 42.28C97.8216 42.28 97.9416 42.3733 98.0216 42.56L98.7816 43.88C98.8349 43.96 98.8616 44.0667 98.8616 44.2C98.8616 44.3867 98.7549 44.5467 98.5416 44.68C97.4749 45.3467 96.3282 45.8267 95.1016 46.12C93.9016 46.44 92.5149 46.6 90.9416 46.6ZM96.8616 35.08C96.8616 33.08 96.3149 31.5333 95.2216 30.44C94.1282 29.32 92.5016 28.76 90.3416 28.76C88.1282 28.76 86.4216 29.3333 85.2216 30.48C84.0482 31.6267 83.4616 33.16 83.4616 35.08H96.8616ZM115.046 46.6C111.579 46.6 108.859 45.7333 106.886 44C104.939 42.24 103.966 39.7333 103.966 36.48C103.966 34.4533 104.406 32.6667 105.286 31.12C106.193 29.5733 107.473 28.3733 109.126 27.52C110.779 26.64 112.699 26.2 114.886 26.2C116.513 26.2 117.886 26.3467 119.006 26.64C120.153 26.9333 121.233 27.44 122.246 28.16C122.459 28.32 122.566 28.48 122.566 28.64C122.566 28.6933 122.513 28.8267 122.406 29.04L121.606 30.4C121.499 30.64 121.379 30.76 121.246 30.76C121.166 30.76 121.033 30.6933 120.846 30.56C120.046 30 119.179 29.5867 118.246 29.32C117.313 29.0533 116.219 28.92 114.966 28.92C112.619 28.92 110.793 29.6 109.486 30.96C108.179 32.2933 107.526 34.1333 107.526 36.48C107.526 38.9867 108.179 40.84 109.486 42.04C110.793 43.24 112.739 43.84 115.326 43.84C116.606 43.84 117.699 43.7067 118.606 43.44C119.513 43.1467 120.353 42.7333 121.126 42.2C121.313 42.0667 121.446 42 121.526 42C121.659 42 121.779 42.12 121.886 42.36L122.726 43.76C122.833 43.9733 122.886 44.0933 122.886 44.12C122.886 44.28 122.766 44.44 122.526 44.6C121.513 45.2667 120.406 45.76 119.206 46.08C118.006 46.4267 116.619 46.6 115.046 46.6ZM135.381 46.6C132.715 46.6 130.595 45.8267 129.021 44.28C127.448 42.7067 126.661 40.48 126.661 37.6C126.661 35.3333 127.128 33.3467 128.061 31.64C129.021 29.9067 130.395 28.5733 132.181 27.64C133.968 26.68 136.061 26.2 138.461 26.2C140.141 26.2 141.688 26.4267 143.101 26.88C144.515 27.3067 145.701 27.8533 146.661 28.52V45C146.661 45.3467 146.581 45.6 146.421 45.76C146.261 45.92 145.995 46 145.621 46H144.381C144.088 46 143.875 45.9333 143.741 45.8C143.608 45.6667 143.515 45.4533 143.461 45.16L143.261 43.4C142.408 44.52 141.341 45.3333 140.061 45.84C138.781 46.3467 137.221 46.6 135.381 46.6ZM136.741 43.84C137.808 43.84 138.835 43.6267 139.821 43.2C140.808 42.7733 141.608 42.16 142.221 41.36C142.835 40.5333 143.141 39.5867 143.141 38.52V29.92C141.808 29.2533 140.221 28.92 138.381 28.92C135.928 28.92 133.955 29.68 132.461 31.2C130.968 32.6933 130.221 34.76 130.221 37.4C130.221 39.6133 130.755 41.24 131.821 42.28C132.915 43.32 134.555 43.84 136.741 43.84ZM181.908 46.6C177.482 46.6 174.055 45.36 171.628 42.88C169.228 40.4 168.028 36.9067 168.028 32.4C168.028 27.8933 169.228 24.4 171.628 21.92C174.055 19.44 177.482 18.2 181.908 18.2C183.615 18.2 185.215 18.3733 186.708 18.72C188.228 19.0667 189.495 19.5733 190.508 20.24C190.722 20.3733 190.828 20.52 190.828 20.68C190.828 20.7867 190.788 20.92 190.708 21.08L189.868 22.48C189.762 22.6933 189.642 22.8 189.508 22.8C189.375 22.8 189.242 22.7467 189.108 22.64C188.308 22.16 187.322 21.7733 186.148 21.48C184.975 21.16 183.668 21 182.228 21C178.948 21 176.348 21.9467 174.428 23.84C172.535 25.7067 171.588 28.56 171.588 32.4C171.588 36.24 172.535 39.0933 174.428 40.96C176.322 42.8267 178.868 43.76 182.068 43.76C183.322 43.76 184.548 43.6533 185.748 43.44C186.948 43.2267 187.935 42.9333 188.708 42.56V33.88H182.508C182.082 33.88 181.775 33.7867 181.588 33.6C181.428 33.4133 181.348 33.12 181.348 32.72V32.04C181.348 31.64 181.428 31.36 181.588 31.2C181.775 31.04 182.082 30.96 182.508 30.96H190.908C191.362 30.96 191.682 31.0667 191.868 31.28C192.082 31.4933 192.188 31.8267 192.188 32.28V43.24C192.188 43.5867 192.162 43.84 192.108 44C192.055 44.16 191.922 44.2933 191.708 44.4C189.095 45.8667 185.828 46.6 181.908 46.6ZM197.958 46C197.158 46 196.758 45.6 196.758 44.8V20C196.758 19.2 197.158 18.8 197.958 18.8H199.198C199.625 18.8 199.931 18.9067 200.118 19.12C200.305 19.3067 200.398 19.6 200.398 20V44.8C200.398 45.2 200.305 45.5067 200.118 45.72C199.931 45.9067 199.625 46 199.198 46H197.958ZM213.663 46.6C210.996 46.6 208.876 45.8267 207.303 44.28C205.729 42.7067 204.943 40.48 204.943 37.6C204.943 35.3333 205.409 33.3467 206.343 31.64C207.303 29.9067 208.676 28.5733 210.463 27.64C212.249 26.68 214.343 26.2 216.743 26.2C218.423 26.2 219.969 26.4267 221.383 26.88C222.796 27.3067 223.983 27.8533 224.943 28.52V45C224.943 45.3467 224.863 45.6 224.703 45.76C224.543 45.92 224.276 46 223.903 46H222.663C222.369 46 222.156 45.9333 222.023 45.8C221.889 45.6667 221.796 45.4533 221.743 45.16L221.543 43.4C220.689 44.52 219.623 45.3333 218.343 45.84C217.063 46.3467 215.503 46.6 213.663 46.6ZM215.023 43.84C216.089 43.84 217.116 43.6267 218.103 43.2C219.089 42.7733 219.889 42.16 220.503 41.36C221.116 40.5333 221.423 39.5867 221.423 38.52V29.92C220.089 29.2533 218.503 28.92 216.663 28.92C214.209 28.92 212.236 29.68 210.743 31.2C209.249 32.6933 208.503 34.76 208.503 37.4C208.503 39.6133 209.036 41.24 210.103 42.28C211.196 43.32 212.836 43.84 215.023 43.84ZM237.137 46.6C235.644 46.6 234.151 46.44 232.657 46.12C231.191 45.8 229.951 45.3067 228.937 44.64C228.671 44.48 228.537 44.32 228.537 44.16C228.537 44.08 228.577 43.96 228.657 43.8L229.497 42.36C229.631 42.1467 229.751 42.04 229.857 42.04C229.884 42.04 230.004 42.0933 230.217 42.2C231.044 42.7333 232.031 43.16 233.177 43.48C234.324 43.7733 235.457 43.92 236.577 43.92C238.337 43.92 239.631 43.72 240.457 43.32C241.284 42.8933 241.697 42.1867 241.697 41.2C241.697 40.56 241.524 40.0533 241.177 39.68C240.857 39.28 240.311 38.9333 239.537 38.64C238.791 38.32 237.591 37.92 235.937 37.44C234.417 36.9867 233.204 36.5333 232.297 36.08C231.391 35.6267 230.671 35.04 230.137 34.32C229.604 33.5733 229.337 32.64 229.337 31.52C229.337 29.76 230.044 28.44 231.457 27.56C232.897 26.6533 234.777 26.2 237.097 26.2C238.591 26.2 239.977 26.3733 241.257 26.72C242.537 27.04 243.617 27.4933 244.497 28.08C244.764 28.24 244.897 28.4133 244.897 28.6C244.897 28.68 244.857 28.8 244.777 28.96L243.977 30.28C243.871 30.4667 243.764 30.56 243.657 30.56C243.524 30.56 243.391 30.5067 243.257 30.4C241.684 29.3867 239.737 28.88 237.417 28.88C235.817 28.88 234.657 29.08 233.937 29.48C233.217 29.88 232.857 30.5867 232.857 31.6C232.857 32.24 233.031 32.76 233.377 33.16C233.751 33.5333 234.244 33.8533 234.857 34.12C235.471 34.36 236.417 34.6667 237.697 35.04L239.257 35.52C240.804 36 242.004 36.4933 242.857 37C243.737 37.5067 244.364 38.0933 244.737 38.76C245.111 39.4267 245.297 40.2667 245.297 41.28C245.297 42.88 244.604 44.1733 243.217 45.16C241.831 46.12 239.804 46.6 237.137 46.6ZM256.668 46.6C255.175 46.6 253.682 46.44 252.188 46.12C250.722 45.8 249.482 45.3067 248.468 44.64C248.202 44.48 248.068 44.32 248.068 44.16C248.068 44.08 248.108 43.96 248.188 43.8L249.028 42.36C249.162 42.1467 249.282 42.04 249.388 42.04C249.415 42.04 249.535 42.0933 249.748 42.2C250.575 42.7333 251.562 43.16 252.708 43.48C253.855 43.7733 254.988 43.92 256.108 43.92C257.868 43.92 259.162 43.72 259.988 43.32C260.815 42.8933 261.228 42.1867 261.228 41.2C261.228 40.56 261.055 40.0533 260.708 39.68C260.388 39.28 259.842 38.9333 259.068 38.64C258.322 38.32 257.122 37.92 255.468 37.44C253.948 36.9867 252.735 36.5333 251.828 36.08C250.922 35.6267 250.202 35.04 249.668 34.32C249.135 33.5733 248.868 32.64 248.868 31.52C248.868 29.76 249.575 28.44 250.988 27.56C252.428 26.6533 254.308 26.2 256.628 26.2C258.122 26.2 259.508 26.3733 260.788 26.72C262.068 27.04 263.148 27.4933 264.028 28.08C264.295 28.24 264.428 28.4133 264.428 28.6C264.428 28.68 264.388 28.8 264.308 28.96L263.508 30.28C263.402 30.4667 263.295 30.56 263.188 30.56C263.055 30.56 262.922 30.5067 262.788 30.4C261.215 29.3867 259.268 28.88 256.948 28.88C255.348 28.88 254.188 29.08 253.468 29.48C252.748 29.88 252.388 30.5867 252.388 31.6C252.388 32.24 252.562 32.76 252.908 33.16C253.282 33.5333 253.775 33.8533 254.388 34.12C255.002 34.36 255.948 34.6667 257.228 35.04L258.788 35.52C260.335 36 261.535 36.4933 262.388 37C263.268 37.5067 263.895 38.0933 264.268 38.76C264.642 39.4267 264.828 40.2667 264.828 41.28C264.828 42.88 264.135 44.1733 262.748 45.16C261.362 46.12 259.335 46.6 256.668 46.6Z" fill="white"/>
<mask id="path-2-inside-1_108_250" fill="white">
<path fill-rule="evenodd" clip-rule="evenodd" d="M15.0427 8.2884C11.9315 7.62504 9 9.99735 9 13.1785V53.8215C9 57.0026 11.9315 59.375 15.0427 58.7116L21 57.4414V9.55862L15.0427 8.2884Z"/>
</mask>
<path fill-rule="evenodd" clip-rule="evenodd" d="M15.0427 8.2884C11.9315 7.62504 9 9.99735 9 13.1785V53.8215C9 57.0026 11.9315 59.375 15.0427 58.7116L21 57.4414V9.55862L15.0427 8.2884Z" fill="#001581"/>
<path d="M15.0427 8.2884L15.6682 5.35436L15.0427 8.2884ZM15.0427 58.7116L15.6682 61.6456H15.6682L15.0427 58.7116ZM21 57.4414L21.6256 60.3754L24 59.8692V57.4414H21ZM21 9.55862H24V7.13084L21.6256 6.62457L21 9.55862ZM12 13.1785C12 11.906 13.1726 10.9571 14.4171 11.2225L15.6682 5.35436C10.6903 4.29297 6 8.08867 6 13.1785H12ZM12 53.8215V13.1785H6V53.8215H12ZM14.4171 55.7775C13.1726 56.0429 12 55.094 12 53.8215H6C6 58.9113 10.6903 62.707 15.6682 61.6456L14.4171 55.7775ZM20.3744 54.5073L14.4171 55.7775L15.6682 61.6456L21.6256 60.3754L20.3744 54.5073ZM24 57.4414V9.55862H18V57.4414H24ZM14.4171 11.2225L20.3744 12.4927L21.6256 6.62457L15.6682 5.35436L14.4171 11.2225Z" fill="white" mask="url(#path-2-inside-1_108_250)"/>
<path fill-rule="evenodd" clip-rule="evenodd" d="M26.0693 8.12062C22.9508 7.43795 20 9.81268 20 13.005V54.995C20 58.1873 22.9508 60.562 26.0693 59.8794L32 58.581V9.41895L26.0693 8.12062Z" fill="#001581"/>
<mask id="path-5-inside-2_108_250" fill="white">
<path fill-rule="evenodd" clip-rule="evenodd" d="M12.3363 11.6303L6.04265 10.2884C2.93146 9.62504 0 11.9974 0 15.1785V50.5215C0 53.7026 2.93145 56.075 6.04265 55.4116L12.0834 54.1236C12.0287 53.8267 12 53.5194 12 53.2038V13.443C12 12.7982 12.1198 12.1881 12.3363 11.6303Z"/>
</mask>
<path fill-rule="evenodd" clip-rule="evenodd" d="M12.3363 11.6303L6.04265 10.2884C2.93146 9.62504 0 11.9974 0 15.1785V50.5215C0 53.7026 2.93145 56.075 6.04265 55.4116L12.0834 54.1236C12.0287 53.8267 12 53.5194 12 53.2038V13.443C12 12.7982 12.1198 12.1881 12.3363 11.6303Z" fill="#001581"/>
<path d="M12.3363 11.6303L15.1331 12.7158L16.4079 9.43103L12.9619 8.69628L12.3363 11.6303ZM6.04265 10.2884L6.66825 7.35436L6.04265 10.2884ZM6.04265 55.4116L6.66824 58.3456H6.66824L6.04265 55.4116ZM12.0834 54.1236L12.709 57.0576L15.5623 56.4493L15.0338 53.5801L12.0834 54.1236ZM12.9619 8.69628L6.66825 7.35436L5.41706 13.2225L11.7107 14.5644L12.9619 8.69628ZM6.66825 7.35436C1.69033 6.29297 -3 10.0887 -3 15.1785H3C3 13.906 4.17259 12.9571 5.41706 13.2225L6.66825 7.35436ZM-3 15.1785V50.5215H3V15.1785H-3ZM-3 50.5215C-3 55.6113 1.69032 59.407 6.66824 58.3456L5.41706 52.4776C4.17258 52.7429 3 51.794 3 50.5215H-3ZM6.66824 58.3456L12.709 57.0576L11.4578 51.1896L5.41706 52.4776L6.66824 58.3456ZM9 53.2038C9 53.7018 9.04533 54.191 9.13304 54.6671L15.0338 53.5801C15.0121 53.4624 15 53.3371 15 53.2038H9ZM9 13.443V53.2038H15V13.443H9ZM9.53955 10.5449C9.19018 11.4451 9 12.4229 9 13.443H15C15 13.1734 15.0494 12.9312 15.1331 12.7158L9.53955 10.5449Z" fill="white" mask="url(#path-5-inside-2_108_250)"/>
<path d="M23.415 9.21539L46.415 14.0942C47.3391 14.2902 48 15.106 48 16.0506V18C48 19.6569 49.3431 21 51 21V16.0506C51 13.6891 49.3477 11.6495 47.0375 11.1595L24.0375 6.28069C20.9277 5.62104 18 7.99288 18 11.1719V56.8281C18 60.0071 20.9277 62.379 24.0375 61.7193L47.0375 56.8405C49.3477 56.3505 51 54.3109 51 51.9494V50H49.9494C48.8728 50 48 50.8728 48 51.9494C48 52.894 47.3391 53.7098 46.415 53.9058L23.415 58.7846C22.1711 59.0485 21 58.0997 21 56.8281V11.1719C21 9.90027 22.1711 8.95153 23.415 9.21539Z" fill="white"/>
<path d="M30 35.5C30.8284 35.5 31.5 34.8284 31.5 34C31.5 33.1716 30.8284 32.5 30 32.5V35.5ZM21 35.5H30V32.5H21V35.5Z" fill="white"/>
</svg>
